#!OML:ASF I:\Actors\actors\Patient Classification 1\Patient 1\Session 1\Subject1.ASF
:FULLY-SPECIFIED
:DEGREES
414
root -0.530601 17.5303 7.4279 4.99719 -4.10596 -8.09572
lowerback 1.68184 0.789229 4.34438
upperback -7.13172 1.37687 0.777735
thorax -8.36042 0.413004 -1.73078
lowerneck -13.573 -0.706818 3.0544
upperneck 35.7021 -1.67545 -0.955221
head 14.5294 -0.458152 -1.20863
rclavicle -1.09332e-015 2.14687e-014
rhumerus 13.9162 60.7835 -38.8879
rradius 106.665
rwrist 44.6732
rhand -32.5722 -33.1919
rfingers 7.12502
rthumb -5.80116 -783.092
lclavicle -1.09332e-015 2.14687e-014
lhumerus -42.9984 -32.5739 106.794
lradius 100.27
lwrist 16.4147
lhand -28.2241 -11.1739
lfingers 7.12502
lthumb -1.60231 18.7999
rfemur -0.639819 22.5409 26.9821
rtibia 3.63772
rfoot -10.7107 -18.44
rtoes -0.528131
lfemur 11.0088 -40.0631 -18.0646
ltibia -4.33838
lfoot -21.5602 51.9479
ltoes 14.3363
415
root -0.533529 17.5303 7.4289 4.99275 -4.17063 -8.10433
lowerback 1.64788 0.867829 4.39707
upperback -7.12625 1.47981 0.723226
thorax -8.32588 0.458835 -1.82579
lowerneck -13.5211 -0.739243 3.02455
upperneck 35.6728 -1.73551 -0.888413
head 14.5037 -0.478983 -1.18432
rclavicle 1.60022e-014 -2.38542e-015
rhumerus 12.8883 61.1853 -40.4406
rradius 105.87
rwrist 44.7712
rhand -33.0461 -31.1693
rfingers 7.12502
rthumb -6.25874 -781.057
lclavicle 1.60022e-014 -2.38542e-015
lhumerus -42.9931 -32.8486 106.916
lradius 100.29
lwrist 16.5485
lhand -28.1264 -11.157
lfingers 7.12502
lthumb -1.50802 18.8174
rfemur -0.64818 22.5332 27.0011
rtibia 3.66783
rfoot -10.7306 -18.3544
rtoes -0.490146
lfemur 11.0518 -40.0987 -18.0957
ltibia -4.32295
lfoot -21.5007 52.0309
ltoes 14.2381
416
root -0.536641 17.5303 7.42954 4.98277 -4.22164 -8.1169
lowerback 1.6484 0.925088 4.41124
upperback -7.12586 1.55611 0.700474
thorax -8.32001 0.494692 -1.86418
lowerneck -13.4436 -0.759896 2.94808
upperneck 35.6051 -1.75486 -0.841462
head 14.4553 -0.492172 -1.15267
rclavicle 6.26172e-015 -1.19271e-014
rhumerus 11.9182 61.5234 -41.9602
rradius 105.13
rwrist 44.8212
rhand -33.2993 -29.1351
rfingers 7.12502
rthumb -6.50312 -779.015
lclavicle 6.26172e-015 -1.19271e-014
lhumerus -42.9937 -33.0594 107.062
lradius 100.262
lwrist 16.6703
lhand -28.148 -11.3938
lfingers 7.12502
lthumb -1.5289 18.5805
rfemur -0.647031 22.5528 27.0332
rtibia 3.69528
rfoot -10.7658 -18.3362
rtoes -0.426465
lfemur 11.0465 -39.9486 -18.0423
ltibia -4.34003
lfoot -21.1817 51.992
ltoes 13.9124
417
root -0.539675 17.5301 7.42964 4.9841 -4.25191 -8.11639
lowerback 1.67509 0.960669 4.38502
upperback -7.13769 1.60405 0.696238
thorax -8.34585 0.519129 -1.85876
lowerneck -13.4382 -0.755715 2.86415
upperneck 35.6022 -1.74721 -0.771962
head 14.4548 -0.490289 -1.10794
rclavicle 5.96354e-016 -2.38542e-015
rhumerus 10.8885 61.7347 -43.582
rradius 104.399
rwrist 44.8667
rhand -33.4384 -26.8674
rfingers 7.12502
rthumb -6.63745 -776.743
lclavicle 5.96354e-016 -2.38542e-015
lhumerus -43.0112 -33.1142 107.208
lradius 100.244
lwrist 16.5898
lhand -28.1347 -11.5541
lfingers 7.12502
lthumb -1.516 18.4202
rfemur -0.651481 22.5521 27.0434
rtibia 3.70306
rfoot -10.7495 -18.3259
rtoes -0.395423
lfemur 11.0052 -39.7853 -17.9817
ltibia -4.33715
lfoot -20.8954 51.9341
ltoes 13.6099
418
root -0.54247 17.5296 7.43011 4.99329 -4.2874 -8.09295
lowerback 1.67258 0.981904 4.3235
upperback -7.13714 1.629 0.700454
thorax -8.3432 0.535802 -1.82206
lowerneck -13.5148 -0.723796 2.82015
upperneck 35.6619 -1.71027 -0.713878
head 14.5025 -0.470694 -1.07199
rclavicle -8.94531e-015 1.51076e-014
rhumerus 9.84408 61.803 -45.2166
rradius 103.697
rwrist 44.9121
rhand -33.676 -24.2485
rfingers 7.12502
rthumb -6.86681 -774.117
lclavicle -8.94531e-015 1.51076e-014
lhumerus -42.9844 -32.9893 107.303
lradius 100.217
lwrist 16.2837
lhand -28.1239 -11.6875
lfingers 7.12502
lthumb -1.50554 18.2869
rfemur -0.677985 22.51 27.0105
rtibia 3.71978
rfoot -10.7018 -18.2744
rtoes -0.449591
lfemur 10.987 -39.7462 -17.9917
ltibia -4.31044
lfoot -20.941 51.9162
ltoes 13.6909
419
root -0.545175 17.5289 7.43152 5.00615 -4.31895 -8.11522
lowerback 1.65711 0.988859 4.29314
upperback -7.12464 1.63754 0.733461
thorax -8.32129 0.544018 -1.77059
lowerneck -13.6151 -0.685729 2.75393
upperneck 35.7127 -1.65298 -0.670197
head 14.5519 -0.447556 -1.03481
rclavicle 1.98785e-015 -3.97569e-014
rhumerus 8.75134 61.7954 -46.8747
rradius 103.076
rwrist 44.9164
rhand -33.818 -21.59
rfingers 7.12502
rthumb -7.00389 -771.454
lclavicle 1.98785e-015 -3.97569e-014
lhumerus -42.9021 -32.897 107.366
lradius 100.17
lwrist 16.0295
lhand -28.067 -11.6855
lfingers 7.12502
lthumb -1.45065 18.2893
rfemur -0.700278 22.5122 27.0374
rtibia 3.73218
rfoot -10.6499 -18.2635
rtoes -0.679697
lfemur 10.9961 -39.7812 -17.9676
ltibia -4.30094
lfoot -21.2039 51.9321
ltoes 13.9393
420
root -0.547785 17.5282 7.43352 5.02229 -4.32364 -8.20385
lowerback 1.65588 0.998948 4.34264
upperback -7.11954 1.65729 0.7816
thorax -8.31441 0.552542 -1.74906
lowerneck -13.7073 -0.667988 2.67271
upperneck 35.7652 -1.62079 -0.627643
head 14.5996 -0.437434 -0.999272
rclavicle 1.2921e-015 2.22639e-014
rhumerus 7.5396 61.741 -48.5452
rradius 102.563
rwrist 44.8026
rhand -33.7313 -19.1734
rfingers 7.12502
rthumb -6.92016 -769.04
lclavicle 1.2921e-015 2.22639e-014
lhumerus -42.8881 -32.9778 107.45
lradius 100.12
lwrist 15.9035
lhand -27.7518 -11.6896
lfingers 7.12502
lthumb -1.14623 18.2871
rfemur -0.698177 22.5706 27.1589
rtibia 3.73068
rfoot -10.6593 -18.3154
rtoes -0.677959
lfemur 11.0213 -39.8403 -17.8688
ltibia -4.32446
lfoot -21.3726 51.9879
ltoes 14.0894
421
root -0.549521 17.5278 7.43574 5.04412 -4.29223 -8.28463
lowerback 1.64774 1.01131 4.42068
upperback -7.11588 1.68016 0.810619
thorax -8.30382 0.560027 -1.76372
lowerneck -13.7762 -0.659297 2.67348
upperneck 35.7921 -1.59873 -0.657535
head 14.6281 -0.430963 -1.00909
rclavicle 4.17448e-015 4.77083e-015
rhumerus 6.42973 61.6385 -49.9907
rradius 102.157
rwrist 44.5191
rhand -33.3993 -17.0805
rfingers 7.12502
rthumb -6.5997 -766.958
lclavicle 4.17448e-015 4.77083e-015
lhumerus -42.9484 -33.1259 107.538
lradius 100.06
lwrist 15.8171
lhand -27.5854 -11.7138
lfingers 7.12502
lthumb -0.985447 18.2637
rfemur -0.693633 22.6358 27.2703
rtibia 3.73568
rfoot -10.7464 -18.3943
rtoes -0.491992
lfemur 11.0313 -39.9386 -17.7865
ltibia -4.32617
lfoot -21.478 52.0439
ltoes 14.2018
422
root -0.550861 17.5278 7.43786 5.06956 -4.23659 -8.25287
lowerback 1.62872 1.00614 4.39082
upperback -7.11195 1.67013 0.808918
thorax -8.28936 0.557465 -1.74756
lowerneck -13.7893 -0.641007 2.74434
upperneck 35.7568 -1.56336 -0.73457
head 14.6136 -0.416961 -1.04728
rclavicle -1.0138e-014 3.81667e-014
rhumerus 5.43606 61.4557 -51.2615
rradius 101.836
rwrist 44.1092
rhand -32.9071 -15.2065
rfingers 7.12502
rthumb -6.12455 -765.098
lclavicle -1.0138e-014 3.81667e-014
lhumerus -43.0062 -33.1709 107.594
lradius 99.991
lwrist 15.8235
lhand -27.9747 -11.6564
lfingers 7.12502
lthumb -1.36147 18.319
rfemur -0.696405 22.6522 27.2343
rtibia 3.70164
rfoot -10.7654 -18.4641
rtoes -0.556894
lfemur 10.9694 -39.9655 -17.7806
ltibia -4.30433
lfoot -21.5083 52.0052
ltoes 14.2587
